<svg width="522" height="522" viewBox="0 0 522 522" fill="none" xmlns="http://www.w3.org/2000/svg">
<g clip-path="url(#clip0_1_2040)">
<path d="M575.332 -17H330.664V227.668H575.332V-17Z" fill="#FF6A39"/>
<path d="M330.664 227.668H575.332C575.328 92.5421 465.786 -17 330.664 -17V227.668Z" fill="#E3E3FE"/>
<path d="M575.332 472.336H330.664V717.004H575.332V472.336Z" fill="#D1EA8F"/>
<path d="M330.664 717.004H575.332C575.332 581.878 465.79 472.336 330.664 472.336V717.004Z" fill="#E3E3FE"/>
<path d="M575.332 227.664H330.664V472.332H575.332V227.664Z" fill="#D1EA8F"/>
<path d="M575.332 227.664H330.664V472.332H575.332V227.664Z" fill="#E3E3FE"/>
<path d="M575.332 472.328V227.664C440.206 227.664 330.664 337.206 330.664 472.332H575.332V472.328Z" fill="#D1EA8F"/>
<path d="M575.332 472.328V227.664C507.771 227.664 453 282.435 453 349.996C453 417.557 507.771 472.328 575.332 472.328Z" fill="#FF6A39"/>
<path d="M86.0038 472.336H-158.664V717.004H86.0038V472.336Z" fill="#FF6A39"/>
<path d="M86.0038 472.336H-158.664V717.004C-23.542 717.004 86.0038 607.465 86.0038 472.336Z" fill="#E3E3FE"/>
<path d="M330.668 472.336H86V717.004H330.668V472.336Z" fill="#FF6A39"/>
<path d="M330.668 717.004V472.336C195.542 472.336 86 581.878 86 717.004H330.668Z" fill="#E3E3FE"/>
<path d="M86.0038 -17H-158.664V227.668H86.0038V-17Z" fill="#E3E3FE"/>
<path d="M86.0038 -17H-158.664V227.668C-23.542 227.668 86.0038 118.129 86.0038 -17Z" fill="#D1EA8F"/>
<path d="M330.668 -17H86V227.668H330.668V-17Z" fill="#E3E3FE"/>
<path d="M86 227.668H330.668V-17C195.542 -17 86 92.5421 86 227.668Z" fill="#E3E3FE"/>
<path d="M86.0038 227.664H-158.664V472.332H86.0038V227.664Z" fill="#D1EA8F"/>
<path d="M86.0038 227.664H-158.664V472.332H86.0038V227.664Z" fill="#E3E3FE"/>
<path d="M85.9961 472.328V227.664C18.4351 227.664 -36.3359 282.435 -36.3359 349.996C-36.3359 417.557 18.4351 472.328 85.9961 472.328Z" fill="#D1EA8F"/>
<path d="M330.668 227.664H86V472.332H330.668V227.664Z" fill="#D1EA8F"/>
<path d="M330.668 227.664H86V472.332H330.668V227.664Z" fill="#E3E3FE"/>
<path d="M86 227.664V472.332C153.561 472.332 208.332 417.561 208.332 350C208.332 282.439 153.561 227.668 86 227.668V227.664Z" fill="#D1EA8F"/>
</g>
<defs>
<clipPath id="clip0_1_2040">
<rect width="1468" height="734" fill="white" transform="translate(-648 -17)"/>
</clipPath>
</defs>
</svg>
